<svg width="26" height="26" viewBox="0 0 26 26" fill="none" xmlns="http://www.w3.org/2000/svg">
<g clip-path="url(#clip0_551_20)">
<path d="M13 6.8313L3.72723 14.4757C3.72723 14.4865 3.72452 14.5024 3.71909 14.524C3.71378 14.5455 3.71096 14.5611 3.71096 14.5721V22.3129C3.71096 22.5924 3.81314 22.8346 4.01745 23.0386C4.2217 23.2427 4.46357 23.3454 4.74311 23.3454H10.9356V17.1525H15.0645V23.3456H21.2569C21.5364 23.3456 21.7786 23.2431 21.9826 23.0386C22.1869 22.8348 22.2894 22.5925 22.2894 22.3129V14.5721C22.2894 14.5292 22.2835 14.4968 22.2731 14.4757L13 6.8313Z" fill="#050505"/>
<path d="M25.8206 12.734L22.289 9.79889V3.21911C22.289 3.06869 22.2407 2.94499 22.1436 2.84817C22.0474 2.75147 21.9237 2.70312 21.7729 2.70312H18.6766C18.5261 2.70312 18.4024 2.75147 18.3055 2.84817C18.2089 2.94499 18.1606 3.06875 18.1606 3.21911V6.36381L14.2257 3.07383C13.8821 2.79429 13.4735 2.65454 13.0003 2.65454C12.5273 2.65454 12.1187 2.79429 11.7747 3.07383L0.17917 12.734C0.0716787 12.8198 0.0127647 12.9354 0.00180659 13.0806C-0.00909505 13.2256 0.0284676 13.3523 0.114607 13.4598L1.11445 14.6532C1.20059 14.7499 1.31334 14.809 1.45314 14.8306C1.5822 14.8415 1.71127 14.8038 1.84034 14.7178L13 5.41232L24.1598 14.7177C24.246 14.7927 24.3587 14.8302 24.4985 14.8302H24.5469C24.6865 14.809 24.799 14.7494 24.8856 14.6529L25.8856 13.4597C25.9715 13.352 26.0092 13.2256 25.998 13.0803C25.987 12.9356 25.9279 12.82 25.8206 12.734Z" fill="#050505"/>
</g>
<defs>
<clipPath id="clip0_551_20">
<rect width="26" height="26" fill="white"/>
</clipPath>
</defs>
</svg>
